<?xml version="1.0" encoding="utf-8"?>
<!-- Generator: Adobe Illustrator 24.3.0, SVG Export Plug-In . SVG Version: 6.00 Build 0)  -->
<svg version="1.1" id="Livello_1" xmlns="http://www.w3.org/2000/svg" xmlns:xlink="http://www.w3.org/1999/xlink" x="0px" y="0px"
	 viewBox="0 0 589.6 605.7" style="enable-background:new 0 0 589.6 605.7;" xml:space="preserve">
<style type="text/css">
	.st0{fill:#EF683C;}
	.st1{fill-rule:evenodd;clip-rule:evenodd;fill:#0B223F;}
	.st2{fill:#0B223F;}
	.st3{fill-rule:evenodd;clip-rule:evenodd;fill:#54565A;}
	.st4{fill:#54565A;}
	.st5{fill:#BBC2C3;}
</style>
<g>
	<g>
		<path class="st0" d="M292.2,232.5l42.2,11.3c0.6-2.8,0.9-5.7,0.9-8.7c0-11.2-4.5-21.3-11.8-28.6c-7.3-7.3-17.4-11.8-28.6-11.8
			s-21.3,4.5-28.6,11.8c-7.3,7.3-11.8,17.4-11.8,28.6s4.5,21.3,11.8,28.6c7.3,7.3,17.4,11.8,28.6,11.8c3,0,5.8-0.3,8.6-0.9
			L292.2,232.5z"/>
		<path class="st0" d="M316.1,321.7l-2.2-8.2c-6.3,1.5-12.7,2.3-19.1,2.3c-19.1,0-38.1-6.7-53.2-20c-18.3-16.1-27.5-38.4-27.5-60.7
			s9.2-44.6,27.5-60.7c15.1-13.3,34.2-20,53.2-20c19.1,0,38.1,6.7,53.2,20c18.3,16.1,27.5,38.4,27.5,60.7c0,6.4-0.8,12.8-2.3,19.1
			l8.2,2.2l31.3,8.4c2.4-9.7,3.6-19.7,3.6-29.7c0-29.9-10.9-59.9-32.7-83.1c-24-25.7-56.4-38.5-88.8-38.5
			c-32.4,0-64.8,12.8-88.8,38.5c-21.8,23.3-32.7,53.2-32.7,83.1c0,29.9,10.9,59.9,32.7,83.1c24,25.6,56.4,38.5,88.8,38.5
			c10,0,19.9-1.2,29.7-3.6L316.1,321.7z"/>
		<polygon class="st1" points="336.5,276.8 373.3,286.7 410,296.5 383.1,323.4 356.2,350.3 346.4,313.6 		"/>
		<g>
			<path class="st2" d="M199.1,117.8l-24.3-24.3l-24.3-24.3c-3-3-6.9-4.5-10.8-4.5c-3.9,0-7.8,1.5-10.8,4.5l0,0l0,0
				c-3,3-4.5,6.9-4.5,10.8s1.5,7.8,4.5,10.8l24.3,24.3l24.3,24.3c1.6-2,3.3-3.9,5-5.8c1.7-1.9,3.5-3.8,5.3-5.6s3.7-3.6,5.6-5.3
				C195.2,121,197.1,119.4,199.1,117.8z"/>
			<path class="st2" d="M68.3,174.4L68.3,174.4L68.3,174.4c-1.1,4.1-0.4,8.2,1.5,11.6s5.2,6,9.3,7.1l33.2,8.9l33.2,8.9
				c0.8-5,1.9-10,3.2-14.9c1.3-4.9,2.9-9.8,4.7-14.6l-33.1-8.9L87,163.6c-4.1-1.1-8.2-0.4-11.6,1.5C72,167.1,69.3,170.3,68.3,174.4z
				"/>
			<path class="st2" d="M234.1,8.6L234.1,8.6L234.1,8.6c-4.1,1.1-7.3,3.7-9.3,7.1s-2.6,7.5-1.5,11.6l8.9,33.1l8.9,33.1
				c4.8-1.8,9.7-3.4,14.6-4.7c4.9-1.3,9.9-2.4,14.9-3.2l-8.9-33.2l-8.9-33.2c-1.1-4.1-3.7-7.3-7.1-9.3
				C242.3,8.1,238.2,7.5,234.1,8.6z"/>
		</g>
	</g>
	<g>
		<path class="st1" d="M115.4,431.6v29.1c0,7.2-0.5,15-9.8,15c-9.2,0-9.8-7.8-9.8-15v-29.1H81.5v31.1c0,7.1,0.3,14.2,5.8,19.5
			c4.6,4.5,11.9,6.2,18.3,6.2c6.5,0,13.7-1.6,18.3-6.2c5.5-5.4,5.8-12.4,5.8-19.5v-31.1H115.4z"/>
		<polygon class="st1" points="154,431.6 139.6,431.6 139.6,486.9 171.2,486.9 171.2,474.8 154,474.8 		"/>
		<polygon class="st1" points="194.6,443.8 206.5,443.8 206.5,431.6 168.4,431.6 168.4,443.8 180.2,443.8 180.2,486.9 194.6,486.9 
					"/>
		<rect x="212.5" y="431.6" class="st1" width="14.4" height="55.3"/>
		<path class="st3" d="M237.9,486.9h10.3c8.7,0,15.3-1.1,21.8-7c6.1-5.4,9-12.5,9-20.6c0-8.2-2.9-15.6-9.2-21
			c-6.5-5.6-13.3-6.7-21.6-6.7h-10.4V486.9z M244,481.2v-43.8h4.5c6.5,0,12.1,0.9,17.2,5.4c4.8,4.2,7.2,10.3,7.2,16.6
			c0,6.2-2.3,12-6.9,16.2c-5.1,4.8-10.7,5.7-17.5,5.7H244z"/>
		<rect x="288.5" y="431.6" class="st3" width="6.2" height="55.3"/>
		<path class="st3" d="M338.5,471.2l6.5,15.7h6.8L327,429l-25.5,57.9h6.7l6.7-15.7H338.5z M336.1,465.5h-18.7l9.5-22.1L336.1,465.5z
			"/>
		<polygon class="st3" points="364.8,431.6 358.7,431.6 358.7,486.9 380.1,486.9 380.1,481.2 364.8,481.2 		"/>
		<path class="st3" d="M413,430.7c-15.8,0-28.8,12.8-28.8,28.7c0,15.9,13.1,28.5,28.8,28.5c15.8,0,28.8-12.6,28.8-28.5
			C441.8,443.5,428.8,430.7,413,430.7 M413,436.4c12.7,0,22.7,10.3,22.7,22.9c0,12.5-10.1,22.9-22.7,22.9
			c-12.5,0-22.7-10.4-22.7-22.9C390.3,446.7,400.3,436.4,413,436.4"/>
		<path class="st3" d="M479.3,459.1v5.7h16.4c0,10.3-10.1,17.3-19.7,17.3c-5.8,0-11.7-3-15.7-7c-4.1-4.2-6.5-9.8-6.5-15.6
			c0-12.5,10-23.1,22.6-23.1c8.1,0,14.4,3.9,19,10.4l4.5-4.2c-5.9-7.6-13.7-12-23.4-12c-15.9,0-28.8,12.9-28.8,28.7
			c0,15.5,12.9,28.4,28.4,28.4c7.7,0,15.4-3.4,20.5-9.2c5.1-5.9,5.9-12,5.7-19.5H479.3z"/>
		<path class="st3" d="M537.8,430.7c-15.8,0-28.8,12.8-28.8,28.7c0,15.9,13.1,28.5,28.8,28.5c15.8,0,28.8-12.6,28.8-28.5
			C566.7,443.5,553.6,430.7,537.8,430.7 M537.8,436.4c12.7,0,22.7,10.3,22.7,22.9c0,12.5-10.1,22.9-22.7,22.9
			c-12.5,0-22.7-10.4-22.7-22.9C515.2,446.7,525.2,436.4,537.8,436.4"/>
		<g>
			<path class="st3" d="M575.6,438.6v4.1h-1.3v-9.1h3.2c0.9,0,1.6,0.2,2.2,0.5c0.6,0.3,0.9,0.9,0.9,1.8c0,0.6-0.2,1-0.5,1.4
				c-0.3,0.4-0.7,0.6-1.2,0.8c0.5,0.1,0.8,0.3,1,0.6c0.2,0.3,0.3,0.7,0.4,1.2c0.1,0.5,0.2,1,0.2,1.5c0.1,0.5,0.2,0.9,0.4,1.3h-1.3
				c-0.1-0.3-0.1-0.6-0.2-0.9c-0.1-0.3-0.1-0.6-0.2-0.9c0-0.3-0.1-0.6-0.1-1c-0.1-0.4-0.2-0.7-0.4-0.9c-0.2-0.2-0.4-0.3-0.6-0.4
				c-0.2-0.1-0.5-0.1-0.8-0.1H575.6z M575.5,437.5h2.1c0.6,0,1.1-0.1,1.3-0.4c0.3-0.3,0.4-0.6,0.4-1s-0.1-0.8-0.4-1
				c-0.2-0.3-0.7-0.4-1.3-0.4h-2.1V437.5z"/>
		</g>
		<g>
			<path class="st4" d="M577.4,444.8c-3.7,0-6.6-3-6.6-6.6c0-3.7,3-6.6,6.6-6.6c3.7,0,6.6,3,6.6,6.6
				C584,441.8,581,444.8,577.4,444.8z M577.4,432c-3.4,0-6.1,2.7-6.1,6.1c0,3.4,2.7,6.1,6.1,6.1c3.4,0,6.1-2.7,6.1-6.1
				C583.4,434.8,580.7,432,577.4,432z"/>
		</g>
		<polygon class="st1" points="5.6,486.9 19.9,486.9 24.6,455.1 24.7,455.1 37.4,486.9 43.1,486.9 56.4,455.1 56.5,455.1 
			60.6,486.9 74.9,486.9 66.6,431.6 52.3,431.6 40.4,461.2 29.2,431.6 15,431.6 		"/>
	</g>
	<g>
		<polygon class="st5" points="17.6,556.1 36.5,556.1 36.5,545.5 17.6,545.5 17.6,518.1 40.7,518.1 40.7,507.6 5.7,507.6 5.7,597.5 
			41.7,597.5 41.7,587 17.6,587 		"/>
		<polygon class="st5" points="86.3,565.9 70.7,507.6 57.5,507.6 57.5,597.5 68.6,597.5 68.6,536.8 84.8,597.5 97.4,597.5 
			97.4,507.6 86.3,507.6 		"/>
		<path class="st5" d="M143.3,507.6h-13.7c-8,0-12.2,4.2-12.2,12.2v65.5c0,8,4.2,12.2,12.2,12.2h13.7c8,0,12.2-4.2,12.2-12.2v-34.2
			h-19v10.5h7v22.2c0,2.1-0.4,2.6-0.5,2.7c-0.1,0.1-0.7,0.5-2.7,0.5h-7.8c-2.3,0-2.7-0.4-2.8-0.5c-0.1-0.1-0.5-0.7-0.5-2.8v-62.4
			c0-2.3,0.4-2.8,0.5-2.8c0,0,0.5-0.5,2.8-0.5h7.8c2.1,0,2.7,0.4,2.8,0.5c0.1,0,0.5,0.5,0.5,2.8v12.9h11.9v-14.5
			C155.6,511.9,151.3,507.6,143.3,507.6z"/>
		<rect x="176.3" y="507.6" class="st5" width="11.8" height="89.9"/>
		<polygon class="st5" points="239.1,565.9 223.5,507.6 210.3,507.6 210.3,597.5 221.4,597.5 221.4,536.8 237.6,597.5 250.1,597.5 
			250.1,507.6 239.1,507.6 		"/>
		<polygon class="st5" points="282.8,556.1 301.7,556.1 301.7,545.5 282.8,545.5 282.8,518.1 306,518.1 306,507.6 270.9,507.6 
			270.9,597.5 307,597.5 307,587 282.8,587 		"/>
		<polygon class="st5" points="334.7,556.1 353.6,556.1 353.6,545.5 334.7,545.5 334.7,518.1 357.8,518.1 357.8,507.6 322.8,507.6 
			322.8,597.5 358.8,597.5 358.8,587 334.7,587 		"/>
		<path class="st5" d="M413.5,548.6v-28.8c0-8-4.2-12.2-12.2-12.2h-26.6v89.9h11.8v-36.6h6.4l12.8,36.6h12.8l-13.3-37
			C409.2,559.6,413.5,556.8,413.5,548.6z M386.4,518.1h12c2.3,0,2.8,0.4,2.8,0.5c0,0,0.5,0.5,0.5,2.8v25.7c0,2.3-0.4,2.8-0.5,2.8
			c0,0-0.5,0.5-2.8,0.5h-12V518.1z"/>
		<rect x="434.9" y="507.6" class="st5" width="11.8" height="89.9"/>
		<polygon class="st5" points="497.6,565.9 482,507.6 468.8,507.6 468.8,597.5 479.9,597.5 479.9,536.8 496.1,597.5 508.7,597.5 
			508.7,507.6 497.6,507.6 		"/>
		<path class="st5" d="M566.9,534.3v-14.5c0-8-4.2-12.2-12.2-12.2H541c-8,0-12.2,4.2-12.2,12.2v65.5c0,8,4.2,12.2,12.2,12.2h13.7
			c8,0,12.2-4.2,12.2-12.2v-34.2h-19v10.5h7v22.2c0,2.1-0.4,2.6-0.5,2.7c-0.1,0.1-0.7,0.5-2.7,0.5h-7.8c-2.3,0-2.7-0.4-2.8-0.5
			c-0.1-0.1-0.5-0.7-0.5-2.8v-62.4c0-2.3,0.4-2.8,0.5-2.8c0,0,0.5-0.5,2.8-0.5h7.8c2.1,0,2.7,0.4,2.8,0.5c0.1,0,0.5,0.5,0.5,2.8
			v12.9H566.9z"/>
	</g>
</g>
</svg>
