<?xml version="1.0" encoding="utf-8"?>
<!-- Generator: Adobe Illustrator 24.3.0, SVG Export Plug-In . SVG Version: 6.00 Build 0)  -->
<svg version="1.1" id="Livello_1" xmlns="http://www.w3.org/2000/svg" xmlns:xlink="http://www.w3.org/1999/xlink" x="0px" y="0px"
	 viewBox="0 0 608.1 605.7" style="enable-background:new 0 0 608.1 605.7;" xml:space="preserve">
<style type="text/css">
	.st0{fill:#EF683C;}
	.st1{fill-rule:evenodd;clip-rule:evenodd;fill:#0B223F;}
	.st2{fill:#0B223F;}
</style>
<g>
	<path class="st0" d="M426.1,525.7c-42.3,10.2-88.5,0.2-122.9-30.1c-62.2-54.7-62.2-151.6,0-206.3c51.4-45.2,129.5-45.3,180.9,0
		c40.1,35.2,54.3,87.9,42.8,135.6l67.1,18c16.4-66.1,0-138.9-49.4-191.6c-81.7-87.2-220.2-87.2-301.9,0
		c-74.1,79.1-74.1,203.4,0,282.5c53.4,57,131.1,76.7,201.4,59.2L426.1,525.7z"/>
	<path class="st0" d="M389.3,388l71.6,19.2c1-4.8,1.6-9.7,1.6-14.8c0-38-30.8-68.7-68.7-68.7s-68.7,30.8-68.7,68.7
		c0,38,30.8,68.7,68.7,68.7c5,0,9.9-0.6,14.6-1.6L389.3,388z"/>
	<polygon class="st1" points="464.7,463.4 589.5,496.8 498.1,588.2 	"/>
	<g>
		<path class="st2" d="M231.1,193.1l-82.5-82.5c-10.1-10.1-26.6-10.1-36.7,0l0,0c-10.1,10.1-10.1,26.6,0,36.7l82.5,82.5
			c5.4-6.6,11.2-13.1,17.4-19.3C218,204.3,224.5,198.5,231.1,193.1z"/>
		<path class="st2" d="M8.8,289.3L8.8,289.3c-3.7,13.9,4.5,28.1,18.4,31.8l112.8,30.2c2.7-17,7.2-33.9,13.3-50.2L40.6,270.9
			C26.7,267.2,12.5,275.4,8.8,289.3z"/>
		<path class="st2" d="M290.6,7.5L290.6,7.5c-13.9,3.7-22.1,17.9-18.4,31.8L302.4,152c16.3-6.2,33.1-10.6,50.2-13.3L322.4,25.9
			C318.7,12,304.4,3.8,290.6,7.5z"/>
	</g>
</g>
</svg>
