<?xml version="1.0" encoding="utf-8"?>
<!-- Generator: Adobe Illustrator 24.3.0, SVG Export Plug-In . SVG Version: 6.00 Build 0)  -->
<svg version="1.1" id="Livello_1" xmlns="http://www.w3.org/2000/svg" xmlns:xlink="http://www.w3.org/1999/xlink" x="0px" y="0px"
	 viewBox="0 0 576.4 605.7" style="enable-background:new 0 0 576.4 605.7;" xml:space="preserve">
<style type="text/css">
	.st0{fill:#EF683C;}
	.st1{fill-rule:evenodd;clip-rule:evenodd;fill:#0B223F;}
	.st2{fill:#0B223F;}
	.st3{fill-rule:evenodd;clip-rule:evenodd;fill:#54565A;}
	.st4{fill:#BBC2C3;}
</style>
<g>
	<g>
		<path class="st0" d="M294.2,232.5l42.2,11.3c0.6-2.8,0.9-5.7,0.9-8.7c0-11.2-4.5-21.3-11.8-28.6s-17.4-11.8-28.6-11.8
			s-21.3,4.5-28.6,11.8c-7.3,7.3-11.8,17.4-11.8,28.6s4.5,21.3,11.8,28.6c7.3,7.3,17.4,11.8,28.6,11.8c3,0,5.8-0.3,8.6-0.9
			L294.2,232.5z"/>
		<path class="st0" d="M318.1,321.7l-2.2-8.2c-6.3,1.5-12.7,2.3-19.1,2.3c-19.1,0-38.1-6.7-53.2-20c-18.3-16.1-27.5-38.4-27.5-60.7
			s9.2-44.6,27.5-60.7c15.1-13.3,34.2-20,53.2-20c19.1,0,38.1,6.7,53.2,20c18.3,16.1,27.5,38.4,27.5,60.7c0,6.4-0.8,12.8-2.3,19.1
			l8.2,2.2l31.3,8.4c2.4-9.7,3.6-19.7,3.6-29.7c0-29.9-10.9-59.9-32.7-83.1c-24-25.7-56.4-38.5-88.8-38.5s-64.8,12.8-88.8,38.5
			c-21.8,23.3-32.7,53.2-32.7,83.1s10.9,59.9,32.7,83.1c24,25.6,56.4,38.5,88.8,38.5c10,0,19.9-1.2,29.7-3.6L318.1,321.7z"/>
		<polygon class="st1" points="338.5,276.8 375.2,286.7 412,296.5 385.1,323.4 358.2,350.3 348.4,313.6 		"/>
		<g>
			<path class="st2" d="M201.1,117.8l-24.3-24.3l-24.3-24.3c-3-3-6.9-4.5-10.8-4.5c-3.9,0-7.8,1.5-10.8,4.5l0,0l0,0
				c-3,3-4.5,6.9-4.5,10.8s1.5,7.8,4.5,10.8l24.3,24.3l24.3,24.3c1.6-2,3.3-3.9,5-5.8c1.7-1.9,3.5-3.8,5.3-5.6s3.7-3.6,5.6-5.3
				C197.1,121,199.1,119.4,201.1,117.8z"/>
			<path class="st2" d="M70.2,174.4L70.2,174.4L70.2,174.4c-1.1,4.1-0.4,8.2,1.5,11.6s5.2,6,9.3,7.1l33.2,8.9l33.2,8.9
				c0.8-5,1.9-10,3.2-14.9s2.9-9.8,4.7-14.6l-33.1-8.9l-33.3-8.9c-4.1-1.1-8.2-0.4-11.6,1.5C73.9,167.1,71.2,170.3,70.2,174.4z"/>
			<path class="st2" d="M236.1,8.6L236.1,8.6L236.1,8.6c-4.1,1.1-7.3,3.7-9.3,7.1s-2.6,7.5-1.5,11.6l8.9,33.1l8.9,33.1
				c4.8-1.8,9.7-3.4,14.6-4.7c4.9-1.3,9.9-2.4,14.9-3.2l-8.9-33.2l-8.9-33.2c-1.1-4.1-3.7-7.3-7.1-9.3
				C244.2,8.1,240.1,7.5,236.1,8.6z"/>
		</g>
	</g>
	<g>
		<path class="st1" d="M117.3,431.6v29.1c0,7.2-0.5,15-9.8,15c-9.2,0-9.8-7.8-9.8-15v-29.1H83.4v31.1c0,7.1,0.3,14.2,5.8,19.5
			c4.6,4.5,11.9,6.2,18.3,6.2c6.5,0,13.7-1.6,18.3-6.2c5.5-5.4,5.8-12.4,5.8-19.5v-31.1H117.3z"/>
		<polygon class="st1" points="155.9,431.6 141.6,431.6 141.6,486.9 173.1,486.9 173.1,474.8 155.9,474.8 		"/>
		<polygon class="st1" points="196.6,443.8 208.4,443.8 208.4,431.6 170.3,431.6 170.3,443.8 182.1,443.8 182.1,486.9 196.6,486.9 
					"/>
		<rect x="214.4" y="431.6" class="st1" width="14.4" height="55.3"/>
		<path class="st3" d="M239.8,486.9h10.3c8.7,0,15.3-1.1,21.8-7c6.1-5.4,9-12.5,9-20.6c0-8.2-2.9-15.6-9.2-21
			c-6.5-5.6-13.3-6.7-21.6-6.7h-10.4v55.3H239.8z M245.9,481.2v-43.8h4.5c6.5,0,12.1,0.9,17.2,5.4c4.8,4.2,7.2,10.3,7.2,16.6
			c0,6.2-2.3,12-6.9,16.2c-5.1,4.8-10.7,5.7-17.5,5.7h-4.5V481.2z"/>
		<rect x="290.5" y="431.6" class="st3" width="6.2" height="55.3"/>
		<path class="st3" d="M340.5,471.2l6.5,15.7h6.8L329,429l-25.5,57.9h6.7l6.7-15.7L340.5,471.2L340.5,471.2z M338.1,465.5h-18.7
			l9.5-22.1L338.1,465.5z"/>
		<polygon class="st3" points="366.8,431.6 360.7,431.6 360.7,486.9 382.1,486.9 382.1,481.2 366.8,481.2 		"/>
		<path class="st3" d="M415,430.7c-15.8,0-28.8,12.8-28.8,28.7c0,15.9,13.1,28.5,28.8,28.5c15.8,0,28.8-12.6,28.8-28.5
			C443.8,443.5,430.8,430.7,415,430.7 M415,436.4c12.7,0,22.7,10.3,22.7,22.9c0,12.5-10.1,22.9-22.7,22.9
			c-12.5,0-22.7-10.4-22.7-22.9C392.2,446.7,402.2,436.4,415,436.4"/>
		<path class="st3" d="M481.2,459.1v5.7h16.4c0,10.3-10.1,17.3-19.7,17.3c-5.8,0-11.7-3-15.7-7c-4.1-4.2-6.5-9.8-6.5-15.6
			c0-12.5,10-23.1,22.6-23.1c8.1,0,14.4,3.9,19,10.4l4.5-4.2c-5.9-7.6-13.7-12-23.4-12c-15.9,0-28.8,12.9-28.8,28.7
			c0,15.5,12.9,28.4,28.4,28.4c7.7,0,15.4-3.4,20.5-9.2c5.1-5.9,5.9-12,5.7-19.5h-23V459.1z"/>
		<path class="st3" d="M539.8,430.7c-15.8,0-28.8,12.8-28.8,28.7c0,15.9,13.1,28.5,28.8,28.5c15.8,0,28.8-12.6,28.8-28.5
			C568.7,443.5,555.5,430.7,539.8,430.7 M539.8,436.4c12.7,0,22.7,10.3,22.7,22.9c0,12.5-10.1,22.9-22.7,22.9
			c-12.5,0-22.7-10.4-22.7-22.9C517.2,446.7,527.2,436.4,539.8,436.4"/>
		<polygon class="st1" points="7.6,486.9 21.9,486.9 26.6,455.1 26.7,455.1 39.4,486.9 45,486.9 58.4,455.1 58.5,455.1 62.5,486.9 
			76.8,486.9 68.5,431.6 54.2,431.6 42.4,461.2 31.2,431.6 17,431.6 		"/>
	</g>
	<g>
		<polygon class="st4" points="19.6,556.1 38.5,556.1 38.5,545.5 19.6,545.5 19.6,518.1 42.7,518.1 42.7,507.6 7.6,507.6 7.6,597.5 
			43.7,597.5 43.7,587 19.6,587 		"/>
		<polygon class="st4" points="88.2,565.9 72.6,507.6 59.5,507.6 59.5,597.5 70.5,597.5 70.5,536.8 86.8,597.5 99.3,597.5 
			99.3,507.6 88.2,507.6 		"/>
		<path class="st4" d="M145.2,507.6h-13.7c-8,0-12.2,4.2-12.2,12.2v65.5c0,8,4.2,12.2,12.2,12.2h13.7c8,0,12.2-4.2,12.2-12.2v-34.2
			h-19v10.5h7v22.2c0,2.1-0.4,2.6-0.5,2.7c-0.1,0.1-0.7,0.5-2.7,0.5h-7.8c-2.3,0-2.7-0.4-2.8-0.5s-0.5-0.7-0.5-2.8v-62.4
			c0-2.3,0.4-2.8,0.5-2.8c0,0,0.5-0.5,2.8-0.5h7.8c2.1,0,2.7,0.4,2.8,0.5c0.1,0,0.5,0.5,0.5,2.8v12.9h11.9v-14.5
			C157.6,511.9,153.2,507.6,145.2,507.6z"/>
		<rect x="178.2" y="507.6" class="st4" width="11.8" height="89.9"/>
		<polygon class="st4" points="241.1,565.9 225.4,507.6 212.2,507.6 212.2,597.5 223.3,597.5 223.3,536.8 239.6,597.5 252.1,597.5 
			252.1,507.6 241.1,507.6 		"/>
		<polygon class="st4" points="284.8,556.1 303.7,556.1 303.7,545.5 284.8,545.5 284.8,518.1 308,518.1 308,507.6 272.9,507.6 
			272.9,597.5 309,597.5 309,587 284.8,587 		"/>
		<polygon class="st4" points="336.7,556.1 355.6,556.1 355.6,545.5 336.7,545.5 336.7,518.1 359.8,518.1 359.8,507.6 324.8,507.6 
			324.8,597.5 360.8,597.5 360.8,587 336.7,587 		"/>
		<path class="st4" d="M415.5,548.6v-28.8c0-8-4.2-12.2-12.2-12.2h-26.6v89.9h11.8v-36.6h6.4l12.8,36.6h12.8l-13.3-37
			C411.2,559.6,415.5,556.8,415.5,548.6z M388.4,518.1h12c2.3,0,2.8,0.4,2.8,0.5c0,0,0.5,0.5,0.5,2.8v25.7c0,2.3-0.4,2.8-0.5,2.8
			c0,0-0.5,0.5-2.8,0.5h-12V518.1z"/>
		<rect x="436.9" y="507.6" class="st4" width="11.8" height="89.9"/>
		<polygon class="st4" points="499.6,565.9 484,507.6 470.8,507.6 470.8,597.5 481.9,597.5 481.9,536.8 498.1,597.5 510.7,597.5 
			510.7,507.6 499.6,507.6 		"/>
		<path class="st4" d="M568.9,534.3v-14.5c0-8-4.2-12.2-12.2-12.2H543c-8,0-12.2,4.2-12.2,12.2v65.5c0,8,4.2,12.2,12.2,12.2h13.7
			c8,0,12.2-4.2,12.2-12.2v-34.2h-19v10.5h7v22.2c0,2.1-0.4,2.6-0.5,2.7c-0.1,0.1-0.7,0.5-2.7,0.5h-7.8c-2.3,0-2.7-0.4-2.8-0.5
			s-0.5-0.7-0.5-2.8v-62.4c0-2.3,0.4-2.8,0.5-2.8c0,0,0.5-0.5,2.8-0.5h7.8c2.1,0,2.7,0.4,2.8,0.5c0.1,0,0.5,0.5,0.5,2.8v12.9
			L568.9,534.3L568.9,534.3z"/>
	</g>
</g>
</svg>
