<?xml version="1.0" encoding="utf-8"?>
<!-- Generator: Adobe Illustrator 24.3.0, SVG Export Plug-In . SVG Version: 6.00 Build 0)  -->
<svg version="1.1" id="Livello_1" xmlns="http://www.w3.org/2000/svg" xmlns:xlink="http://www.w3.org/1999/xlink" x="0px" y="0px"
	 viewBox="0 0 1000 220" style="enable-background:new 0 0 1000 220;" xml:space="preserve">
<style type="text/css">
	.st0{fill:#FF5221;}
	.st1{fill-rule:evenodd;clip-rule:evenodd;fill:#0B223F;}
	.st2{fill-rule:evenodd;clip-rule:evenodd;fill:#54565A;}
	.st3{fill:#0B223F;}
	.st4{fill:#54565A;}
</style>
<g>
	<g>
		<g>
			<g>
				<path class="st0" d="M90.5,70.4c-15.4,0-27.9,12.5-27.9,27.9s12.5,27.9,27.9,27.9c3,0,5.9-0.5,8.6-1.3l-10.5-29l29.6,5.1
					c0.1-0.9,0.1-1.7,0.1-2.6C118.4,82.8,105.9,70.4,90.5,70.4z"/>
			</g>
			<g>
				<path class="st0" d="M111.4,158.9l-1.9-5.2c-6,2-12.3,3.1-19,3.1c-32.3,0-58.6-26.2-58.6-58.6s26.2-58.6,58.6-58.6
					c32.3,0,58.6,26.2,58.6,58.6c0,2.7-0.2,5.3-0.5,7.8l6.2,1.1l22.5,4.1c0.6-4.2,1-8.6,1-13c0-48.5-39.3-87.7-87.7-87.7
					S2.9,49.8,2.9,98.2s39.3,87.7,87.7,87.7c10.2,0,19.9-1.7,29-4.9L111.4,158.9z"/>
			</g>
			<g>
				<path class="st0" d="M144.7,164.4l10.7-12.7l10.7-12.8l-16.3-2.9l-12.7-2.2c-0.8,1-1.6,2-2.4,2.9l4.3,12L144.7,164.4z"/>
			</g>
		</g>
		<g>
			<path class="st1" d="M133,150.9l-9.3-25.8l27.2,4.7l27,4.9l-17.6,21.2l-17.7,21L133,150.9z M209.1,123.3l-36,43.2l-36.3,43
				l-19.4-52.8l-19.1-52.9l55.4,9.6L209.1,123.3z"/>
		</g>
	</g>
	<g>
		<g>
			<path class="st1" d="M375.5,70.1v38.5c0,9.5-0.7,20-12.9,20s-12.9-10.5-12.9-20V70h-19.1v41.2c0,9.4,0.4,18.7,7.7,25.9
				c6.1,6,15.7,8.2,24.3,8.2s18.2-2.2,24.3-8.2c7.2-7.1,7.7-16.5,7.7-25.9V70h-19.1V70.1z"/>
		</g>
		<g>
			<polygon class="st1" points="426.8,70.1 407.7,70.1 407.7,143.4 449.7,143.4 449.7,127.2 426.8,127.2 			"/>
		</g>
		<g>
			<polygon class="st1" points="480.7,86.1 496.5,86.1 496.5,70.1 445.9,70.1 445.9,86.1 461.7,86.1 461.7,143.4 480.7,143.4 			"/>
		</g>
		<g>
			<rect x="504.5" y="70.1" class="st1" width="19.1" height="73.3"/>
		</g>
		<g>
			<path class="st2" d="M538.1,143.4h13.7c11.5,0,20.2-1.4,29-9.2c8.1-7.2,12-16.7,12-27.3c0-10.9-3.8-20.7-12.1-28
				c-8.7-7.4-17.6-8.8-28.6-8.8h-13.8v73.3H538.1z M546.3,135.8V77.6h5.9c8.7,0,16,1.1,22.8,7.1c6.3,5.6,9.5,13.7,9.5,22
				c0,8.2-3.1,15.8-9.1,21.5c-6.7,6.3-14.2,7.6-23.2,7.6L546.3,135.8L546.3,135.8z"/>
		</g>
		<g>
			<rect x="605.3" y="70.1" class="st2" width="8.2" height="73.3"/>
		</g>
		<g>
			<path class="st2" d="M671.7,122.6l8.7,20.8h9l-33-76.8l-33.9,76.8h8.9l8.8-20.8L671.7,122.6L671.7,122.6z M668.5,115h-24.9
				l12.5-29.4L668.5,115z"/>
		</g>
		<g>
			<polygon class="st2" points="706.6,70.1 698.4,70.1 698.4,143.4 726.8,143.4 726.8,135.8 706.6,135.8 			"/>
		</g>
		<g>
			<path class="st2" d="M770.5,68.7c-20.9,0-38.2,17-38.2,38c0,21.1,17.3,37.8,38.2,37.8s38.2-16.8,38.2-37.8
				C808.7,85.8,791.4,68.7,770.5,68.7 M770.5,76.4c16.9,0,30,13.7,30,30.3c0,16.6-13.5,30.3-30,30.3c-16.7,0-30-13.8-30-30.3
				C740.3,90.1,753.6,76.4,770.5,76.4"/>
		</g>
		<g>
			<path class="st2" d="M858.4,106.5v7.6h21.7c0,13.7-13.5,23-26.2,23c-7.7,0-15.4-4-20.8-9.3c-5.5-5.6-8.6-12.9-8.6-20.7
				c0-16.6,13.3-30.6,29.9-30.6c10.8,0,19.1,5.2,25.2,13.8l5.9-5.6c-7.8-10.1-18.2-15.8-31.1-15.8c-21.1,0-38.2,17.1-38.2,38.1
				c0,20.6,17.1,37.7,37.7,37.7c10.3,0,20.4-4.5,27.1-12.2s7.8-15.9,7.6-25.9h-30.2V106.5z"/>
		</g>
		<g>
			<path class="st2" d="M936,68.7c-20.9,0-38.2,17-38.2,38c0,21.1,17.3,37.8,38.2,37.8c20.9,0,38.2-16.8,38.2-37.8
				C974.3,85.8,956.9,68.7,936,68.7 M936,76.4c16.9,0,30,13.7,30,30.3c0,16.6-13.5,30.3-30,30.3c-16.7,0-30-13.8-30-30.3
				C906,90.1,919.2,76.4,936,76.4"/>
		</g>
		<g>
			<path class="st1" d="M986.1,79.2v5.5h-1.7V72.6h4.3c1.2,0,2.2,0.2,2.9,0.7c0.8,0.4,1.1,1.2,1.1,2.4c0,0.7-0.2,1.3-0.6,1.9
				c-0.4,0.5-0.9,0.8-1.7,1c0.6,0.2,1.1,0.4,1.3,0.8c0.2,0.3,0.4,0.8,0.5,1.6c0.1,0.7,0.2,1.3,0.3,2c0.1,0.6,0.2,1.2,0.5,1.8h-1.8
				c-0.1-0.4-0.2-0.7-0.3-1.2c-0.1-0.4-0.1-0.8-0.2-1.2c0-0.4-0.1-0.8-0.1-1.3c-0.1-0.5-0.2-0.8-0.5-1.1c-0.2-0.2-0.5-0.4-0.7-0.5
				c-0.3-0.1-0.6-0.1-1-0.1h-2.5V79.2z M986,77.7h2.8c0.8,0,1.4-0.2,1.8-0.5c0.3-0.3,0.5-0.8,0.5-1.3c0-0.5-0.2-1-0.5-1.3
				c-0.3-0.3-0.9-0.5-1.8-0.5H986V77.7z"/>
		</g>
		<g>
			<path class="st3" d="M988.5,87.3c-4.8,0-8.6-3.8-8.6-8.6c0-4.8,3.8-8.6,8.6-8.6c4.8,0,8.6,3.8,8.6,8.6
				C997.1,83.4,993.3,87.3,988.5,87.3z M988.5,70.4c-4.6,0-8.3,3.7-8.3,8.3s3.7,8.3,8.3,8.3s8.3-3.7,8.3-8.3S993.1,70.4,988.5,70.4z
				"/>
		</g>
		<g>
			<g>
				<path class="st2" d="M986.1,79.2v5.5h-1.7V72.6h4.3c1.2,0,2.2,0.2,2.9,0.7c0.8,0.4,1.1,1.2,1.1,2.4c0,0.7-0.2,1.3-0.6,1.9
					c-0.4,0.5-0.9,0.8-1.7,1c0.6,0.2,1.1,0.4,1.3,0.8c0.2,0.3,0.4,0.8,0.5,1.6c0.1,0.7,0.2,1.3,0.3,2c0.1,0.6,0.2,1.2,0.5,1.8h-1.8
					c-0.1-0.4-0.2-0.7-0.3-1.2c-0.1-0.4-0.1-0.8-0.2-1.2c0-0.4-0.1-0.8-0.1-1.3c-0.1-0.5-0.2-0.8-0.5-1.1c-0.2-0.2-0.5-0.4-0.7-0.5
					c-0.3-0.1-0.6-0.1-1-0.1h-2.5V79.2z M986,77.7h2.8c0.8,0,1.4-0.2,1.8-0.5c0.3-0.3,0.5-0.8,0.5-1.3c0-0.5-0.2-1-0.5-1.3
					c-0.3-0.3-0.9-0.5-1.8-0.5H986V77.7z"/>
			</g>
		</g>
		<g>
			<g>
				<path class="st4" d="M988.5,87.3c-4.8,0-8.6-3.8-8.6-8.6c0-4.8,3.8-8.6,8.6-8.6c4.8,0,8.6,3.8,8.6,8.6
					C997.1,83.4,993.3,87.3,988.5,87.3z M988.5,70.4c-4.6,0-8.3,3.7-8.3,8.3s3.7,8.3,8.3,8.3s8.3-3.7,8.3-8.3
					C996.7,74.1,993.1,70.4,988.5,70.4z"/>
			</g>
		</g>
		<g>
			<polygon class="st1" points="230,143.4 249,143.4 255.1,101.1 255.3,101.1 272.1,143.4 279.7,143.4 297.4,101.1 297.5,101.1 
				302.9,143.4 321.9,143.4 310.8,70.1 291.9,70.1 276.1,109.2 261.2,70.1 242.5,70.1 			"/>
		</g>
	</g>
</g>
</svg>
